<svg width="60" height="60" viewBox="0 0 60 60" fill="none" xmlns="http://www.w3.org/2000/svg">
<rect width="60" height="60" rx="8" fill="#F2F4F7"/>
<g clip-path="url(#clip0_135_290)">
<path d="M20.2825 29.8797H22.2565V33.1559H22.6203H22.6214H22.9869V29.8797H25.0041V29.2711H34.8448V29.9055H36.6712V33.1559H37.0269C37.0269 33.1559 37.0269 33.1559 37.028 33.1559H37.3837V29.9055H39.5307V29.4136C39.5307 29.4067 39.5342 29.4015 39.5342 29.3952C39.5342 29.3538 39.5342 29.313 39.5342 29.2717H42.8219V28.5154H39.5342C39.5342 28.4843 39.5342 28.4533 39.5342 28.4211C39.5342 28.4148 39.5307 28.4091 39.5307 28.4027V27.9246H34.8448V28.5154H30.2986V26.9913H29.9026H29.9015H29.5118V28.5154H25.0029V27.8809H20.2825V28.5154H16.6402V29.2717H20.2825V29.8797Z" fill="#2D4162"/>
<path d="M28.3464 25.6828H31.337V24.1823H35.4362V16.8937H24.3834V24.1823H28.3464V25.6828ZM25.5035 23.0617V18.0143H34.3161V23.0617H25.5035Z" fill="#2D4162"/>
<path d="M32.9478 25.7109H26.7361V26.0195H32.9478V25.7109Z" fill="#2D4162"/>
<path d="M16 41.2692H19.963V42.7697H22.9536V41.2692H27.0533V33.98H16V41.2692ZM17.1206 35.1H25.9327V40.1486H17.1206V35.1Z" fill="#2D4162"/>
<path d="M24.5644 42.7979H18.3533V43.1065H24.5644V42.7979Z" fill="#2D4162"/>
<path d="M32.9478 33.8116V41.1009H36.9102V42.6013H39.9014V41.1009H44.0006V33.8116H32.9478ZM42.88 39.9808H34.0679V34.9334H42.88V39.9808Z" fill="#2D4162"/>
<path d="M41.5117 42.6294H35.3V42.938H41.5117V42.6294Z" fill="#2D4162"/>
</g>
<defs>
<clipPath id="clip0_135_290">
<rect width="28" height="28" fill="white" transform="translate(16 16)"/>
</clipPath>
</defs>
</svg>
