<svg width="60" height="60" viewBox="0 0 60 60" fill="none" xmlns="http://www.w3.org/2000/svg">
<rect width="60" height="60" rx="8" fill="#F2F4F7"/>
<path d="M43.5364 20.7844H38.4561C38.2001 20.7844 37.9926 20.992 37.9926 21.248C37.9926 21.5039 38.2001 21.7115 38.4561 21.7115H40.7351C40.9321 22.9066 41.8777 23.8522 43.0729 24.0493V29.4613C41.8777 29.6584 40.9321 30.604 40.7351 31.7992H23.8052C23.6081 30.604 22.6625 29.6585 21.4674 29.4613V24.0493C22.6625 23.8522 23.6081 22.9066 23.8052 21.7115H36.8627C37.1187 21.7115 37.3262 21.5039 37.3262 21.248C37.3262 20.992 37.1187 20.7844 36.8627 20.7844H21.0038C20.7478 20.7844 20.5403 20.992 20.5403 21.248V32.2627C20.5403 32.5186 20.7478 32.7262 21.0038 32.7262H33.7994V34.0859H16.9271V28.9987C16.9271 28.5002 17.3327 28.0945 17.8312 28.0945H19.4585C19.7145 28.0945 19.9221 27.887 19.9221 27.631C19.9221 27.375 19.7145 27.1675 19.4585 27.1675H17.8312C16.8215 27.1676 16 27.989 16 28.9987V37.3845C16 38.3941 16.8215 39.2156 17.8312 39.2156H32.8953C33.9051 39.2156 34.7265 38.3941 34.7265 37.3845V32.7262H43.5364C43.7925 32.7262 43.9999 32.5187 43.9999 32.2627V21.248C43.9999 20.992 43.7925 20.7844 43.5364 20.7844ZM21.4673 21.7115H22.8594C22.6888 22.3944 22.1503 22.933 21.4673 23.1036V21.7115ZM21.4673 31.7991V30.407C22.1503 30.5776 22.6888 31.1162 22.8594 31.7991H21.4673ZM33.7994 35.8782H20.5803C20.3243 35.8782 20.1168 36.0857 20.1168 36.3417C20.1168 36.5977 20.3243 36.8053 20.5803 36.8053H33.7995V37.3844C33.7995 37.883 33.3939 38.2885 32.8955 38.2885H17.8312C17.3326 38.2885 16.927 37.8829 16.927 37.3844V36.8053H18.8498C19.1058 36.8053 19.3133 36.5977 19.3133 36.3417C19.3133 36.0857 19.1058 35.8782 18.8498 35.8782H16.9271V35.0129H33.7994V35.8782ZM43.0729 31.7991H41.6808C41.8514 31.1162 42.3899 30.5776 43.0729 30.407V31.7991ZM43.0729 23.1036C42.3899 22.933 41.8514 22.3944 41.6808 21.7115H43.0729V23.1036Z" fill="#2D4162"/>
<path d="M32.2701 22.5177C30.3651 22.5177 28.8153 24.4187 28.8153 26.7553C28.8153 29.0919 30.3651 30.9929 32.2701 30.9929C34.1751 30.9929 35.7249 29.0919 35.7249 26.7553C35.7249 24.4187 34.1751 22.5177 32.2701 22.5177ZM32.2702 30.0659C30.8763 30.0659 29.7424 28.5807 29.7424 26.7553C29.7424 24.9299 30.8764 23.4448 32.2702 23.4448C33.664 23.4448 34.7979 24.9299 34.7979 26.7553C34.7979 28.5807 33.664 30.0659 32.2702 30.0659Z" fill="#2D4162"/>
<path d="M41.7472 25.7047H37.1624C36.9064 25.7047 36.6989 25.9123 36.6989 26.1682C36.6989 26.4242 36.9064 26.6318 37.1624 26.6318H41.7472C42.0033 26.6318 42.2107 26.4242 42.2107 26.1682C42.2107 25.9123 42.0033 25.7047 41.7472 25.7047Z" fill="#2D4162"/>
<path d="M27.1542 25.7047H22.5694C22.3134 25.7047 22.1058 25.9123 22.1058 26.1682C22.1058 26.4242 22.3134 26.6318 22.5694 26.6318H27.1542C27.4102 26.6318 27.6177 26.4242 27.6177 26.1682C27.6177 25.9123 27.4102 25.7047 27.1542 25.7047Z" fill="#2D4162"/>
<path d="M41.7472 27.2843H39.2312C38.9752 27.2843 38.7677 27.4918 38.7677 27.7478C38.7677 28.0038 38.9752 28.2114 39.2312 28.2114H41.7472C42.0033 28.2114 42.2107 28.0038 42.2107 27.7478C42.2107 27.4918 42.0033 27.2843 41.7472 27.2843Z" fill="#2D4162"/>
<path d="M25.0854 27.2843H22.5694C22.3134 27.2843 22.1058 27.4918 22.1058 27.7478C22.1058 28.0038 22.3134 28.2114 22.5694 28.2114H25.0854C25.3414 28.2114 25.5489 28.0038 25.5489 27.7478C25.5489 27.4918 25.3414 27.2843 25.0854 27.2843Z" fill="#2D4162"/>
<path d="M33.6122 26.2918H31.3914V25.5912H33.6122C33.8683 25.5912 34.0758 25.3837 34.0758 25.1277C34.0758 24.8717 33.8683 24.6641 33.6122 24.6641H32.7336V24.1975C32.7336 23.9415 32.5261 23.734 32.2701 23.734C32.0141 23.734 31.8066 23.9415 31.8066 24.1975V24.6641H30.9279C30.6719 24.6641 30.4644 24.8717 30.4644 25.1277V26.7554C30.4644 27.0114 30.6719 27.2189 30.9279 27.2189H33.1487V27.9196H30.9279C30.6719 27.9196 30.4644 28.1271 30.4644 28.3831C30.4644 28.6391 30.6719 28.8466 30.9279 28.8466H31.8066V29.3132C31.8066 29.5692 32.0141 29.7767 32.2701 29.7767C32.5261 29.7767 32.7336 29.5692 32.7336 29.3132V28.8466H33.6122C33.8683 28.8466 34.0758 28.6391 34.0758 28.3831V26.7554C34.0758 26.4994 33.8683 26.2918 33.6122 26.2918Z" fill="#2D4162"/>
</svg>
