<svg width="60" height="60" viewBox="0 0 60 60" fill="none" xmlns="http://www.w3.org/2000/svg">
<rect width="60" height="60" rx="8" fill="#F2F4F7"/>
<path d="M37.2172 42.2475H17.5337C17.505 42.2475 17.4765 42.2418 17.45 42.2309C17.4234 42.2199 17.3993 42.2038 17.379 42.1835C17.3587 42.1631 17.3426 42.139 17.3316 42.1125C17.3206 42.086 17.315 42.0575 17.315 42.0288V17.9713C17.315 17.9425 17.3206 17.9141 17.3316 17.8876C17.3426 17.861 17.3587 17.8369 17.379 17.8166C17.3993 17.7963 17.4234 17.7802 17.45 17.7692C17.4765 17.7582 17.505 17.7525 17.5337 17.7526H18.8459C18.9668 17.7526 19.0646 17.8504 19.0646 17.9713C19.0646 18.0921 18.9668 18.19 18.8459 18.19H17.7524V41.8101H36.9985V18.19H35.9049C35.7841 18.19 35.6862 18.0922 35.6862 17.9713C35.6862 17.8503 35.7841 17.7526 35.9049 17.7526H37.2172C37.2459 17.7525 37.2743 17.7582 37.3009 17.7692C37.3274 17.7802 37.3515 17.7963 37.3718 17.8166C37.3921 17.8369 37.4082 17.861 37.4192 17.8876C37.4302 17.9141 37.4359 17.9425 37.4358 17.9713V42.0288C37.4359 42.0575 37.4302 42.086 37.4192 42.1125C37.4083 42.139 37.3922 42.1632 37.3718 42.1835C37.3515 42.2038 37.3274 42.2199 37.3009 42.2309C37.2743 42.2419 37.2459 42.2475 37.2172 42.2475Z" fill="#2D4162"/>
<path d="M34.1553 18.19H32.843C32.7221 18.19 32.6243 18.0922 32.6243 17.9713C32.6243 17.8503 32.7221 17.7526 32.843 17.7526H34.1553C34.2761 17.7526 34.3739 17.8504 34.3739 17.9713C34.3739 18.0921 34.2761 18.19 34.1553 18.19ZM31.0934 18.19H29.7812C29.6603 18.19 29.5625 18.0922 29.5625 17.9713C29.5625 17.8503 29.6603 17.7526 29.7812 17.7526H31.0934C31.2143 17.7526 31.3121 17.8504 31.3121 17.9713C31.3121 18.0921 31.2143 18.19 31.0934 18.19ZM28.0316 18.19H26.7193C26.5984 18.19 26.5006 18.0922 26.5006 17.9713C26.5006 17.8503 26.5984 17.7526 26.7193 17.7526H28.0316C28.1524 17.7526 28.2503 17.8504 28.2503 17.9713C28.2503 18.0921 28.1524 18.19 28.0316 18.19ZM24.9697 18.19H23.6575C23.5366 18.19 23.4387 18.0922 23.4387 17.9713C23.4387 17.8503 23.5366 17.7526 23.6575 17.7526H24.9697C25.0906 17.7526 25.1884 17.8504 25.1884 17.9713C25.1884 18.0921 25.0906 18.19 24.9697 18.19ZM21.9078 18.19H20.5956C20.4747 18.19 20.3768 18.0922 20.3768 17.9713C20.3768 17.8503 20.4747 17.7526 20.5956 17.7526H21.9078C21.9658 17.7526 22.0215 17.7756 22.0625 17.8166C22.1035 17.8576 22.1265 17.9133 22.1265 17.9713C22.1265 18.0293 22.1035 18.0849 22.0625 18.1259C22.0215 18.167 21.9658 18.19 21.9078 18.19ZM36.9985 43.1223H17.5337C17.505 43.1223 17.4765 43.1167 17.45 43.1057C17.4234 43.0947 17.3993 43.0786 17.379 43.0583C17.3587 43.038 17.3426 43.0139 17.3316 42.9873C17.3206 42.9608 17.315 42.9323 17.315 42.9036C17.315 42.8749 17.3206 42.8465 17.3316 42.8199C17.3426 42.7934 17.3587 42.7693 17.379 42.7489C17.3993 42.7286 17.4234 42.7125 17.45 42.7015C17.4765 42.6906 17.505 42.6849 17.5337 42.6849H36.9984C37.0271 42.6849 37.0556 42.6905 37.0821 42.7015C37.1087 42.7125 37.1328 42.7286 37.1531 42.7489C37.1734 42.7692 37.1895 42.7934 37.2005 42.8199C37.2115 42.8464 37.2171 42.8749 37.2171 42.9036C37.2171 42.9323 37.2115 42.9608 37.2005 42.9873C37.1895 43.0139 37.1734 43.038 37.1531 43.0583C37.1328 43.0786 37.1087 43.0947 37.0822 43.1057C37.0556 43.1167 37.0272 43.1223 36.9985 43.1223ZM36.9985 43.9972H17.5337C17.505 43.9972 17.4765 43.9915 17.45 43.9805C17.4234 43.9695 17.3993 43.9534 17.379 43.9331C17.3587 43.9128 17.3426 43.8887 17.3316 43.8621C17.3206 43.8356 17.315 43.8071 17.315 43.7784C17.315 43.7497 17.3206 43.7212 17.3316 43.6947C17.3426 43.6682 17.3587 43.644 17.379 43.6237C17.3993 43.6034 17.4234 43.5873 17.45 43.5763C17.4765 43.5653 17.505 43.5597 17.5337 43.5597H36.9984C37.0271 43.5597 37.0556 43.5653 37.0821 43.5763C37.1087 43.5873 37.1328 43.6034 37.1531 43.6237C37.1734 43.644 37.1895 43.6682 37.2005 43.6947C37.2115 43.7212 37.2171 43.7497 37.2171 43.7784C37.2171 43.8071 37.2115 43.8356 37.2005 43.8621C37.1896 43.8887 37.1735 43.9128 37.1531 43.9331C37.1328 43.9534 37.1087 43.9696 37.0822 43.9805C37.0556 43.9915 37.0272 43.9972 36.9985 43.9972Z" fill="#2D4162"/>
<path d="M19.7207 19.9396C19.3589 19.9396 19.0646 19.6453 19.0646 19.2835V16.659C19.0646 16.2972 19.3589 16.0029 19.7207 16.0029C20.0826 16.0029 20.3769 16.2972 20.3769 16.659V19.2835C20.3769 19.6453 20.0826 19.9396 19.7207 19.9396ZM19.7207 16.4403C19.6628 16.4404 19.6072 16.4635 19.5662 16.5045C19.5252 16.5455 19.5021 16.6011 19.5021 16.6591V19.2835C19.5021 19.4042 19.6003 19.5023 19.7207 19.5023C19.7788 19.5023 19.8344 19.4792 19.8754 19.4382C19.9164 19.3972 19.9394 19.3415 19.9394 19.2835V16.6591C19.9394 16.6011 19.9164 16.5454 19.8754 16.5044C19.8344 16.4634 19.7788 16.4403 19.7207 16.4403ZM22.7826 19.9396C22.4208 19.9396 22.1265 19.6453 22.1265 19.2835V16.659C22.1265 16.2972 22.4208 16.0029 22.7826 16.0029C23.1444 16.0029 23.4387 16.2972 23.4387 16.659V19.2835C23.4387 19.6453 23.1445 19.9396 22.7826 19.9396ZM22.7826 16.4403C22.7246 16.4404 22.669 16.4635 22.628 16.5045C22.587 16.5455 22.564 16.6011 22.5639 16.6591V19.2835C22.5639 19.4042 22.6622 19.5023 22.7826 19.5023C22.8406 19.5023 22.8962 19.4792 22.9372 19.4382C22.9782 19.3972 23.0013 19.3415 23.0013 19.2835V16.6591C23.0013 16.6011 22.9782 16.5454 22.9372 16.5044C22.8962 16.4634 22.8406 16.4403 22.7826 16.4403ZM25.8445 19.9396C25.4827 19.9396 25.1884 19.6453 25.1884 19.2835V16.659C25.1884 16.2972 25.4827 16.0029 25.8445 16.0029C26.2063 16.0029 26.5006 16.2972 26.5006 16.659V19.2835C26.5006 19.6453 26.2063 19.9396 25.8445 19.9396ZM25.8445 16.4403C25.7865 16.4404 25.7309 16.4635 25.6899 16.5045C25.6489 16.5455 25.6259 16.6011 25.6258 16.6591V19.2835C25.6258 19.4042 25.7241 19.5023 25.8445 19.5023C25.9025 19.5023 25.9581 19.4792 25.9992 19.4382C26.0402 19.3972 26.0632 19.3415 26.0632 19.2835V16.6591C26.0632 16.601 26.0402 16.5454 25.9992 16.5044C25.9581 16.4634 25.9025 16.4403 25.8445 16.4403ZM28.9063 19.9396C28.5445 19.9396 28.2502 19.6453 28.2502 19.2835V16.659C28.2502 16.2972 28.5445 16.0029 28.9063 16.0029C29.2681 16.0029 29.5625 16.2973 29.5625 16.6591V19.2835C29.5625 19.6453 29.2681 19.9396 28.9063 19.9396ZM28.9063 16.4403C28.7859 16.4403 28.6876 16.5383 28.6876 16.6591V19.2835C28.6876 19.4042 28.7859 19.5023 28.9063 19.5023C28.9643 19.5023 29.02 19.4792 29.061 19.4382C29.102 19.3972 29.125 19.3415 29.125 19.2835V16.6591C29.125 16.6011 29.102 16.5454 29.061 16.5044C29.02 16.4634 28.9643 16.4403 28.9063 16.4403ZM31.9682 19.9396C31.6064 19.9396 31.3121 19.6453 31.3121 19.2835V16.659C31.3121 16.2972 31.6064 16.0029 31.9682 16.0029C32.33 16.0029 32.6243 16.2972 32.6243 16.659V19.2835C32.6243 19.6453 32.33 19.9396 31.9682 19.9396ZM31.9682 16.4403C31.8478 16.4403 31.7495 16.5383 31.7495 16.6591V19.2835C31.7495 19.4042 31.8478 19.5023 31.9682 19.5023C32.0262 19.5023 32.0819 19.4792 32.1229 19.4382C32.1639 19.3972 32.1869 19.3415 32.1869 19.2835V16.6591C32.1869 16.6011 32.1639 16.5454 32.1229 16.5044C32.0819 16.4634 32.0262 16.4403 31.9682 16.4403ZM35.0301 19.9396C34.6683 19.9396 34.3739 19.6453 34.3739 19.2835V16.659C34.3739 16.2972 34.6683 16.0029 35.0301 16.0029C35.3918 16.0029 35.6862 16.2972 35.6862 16.659V19.2835C35.6862 19.6453 35.3919 19.9396 35.0301 19.9396ZM35.0301 16.4403C34.9096 16.4403 34.8113 16.5383 34.8113 16.6591V19.2835C34.8113 19.4042 34.9096 19.5023 35.0301 19.5023C35.0881 19.5023 35.1437 19.4792 35.1847 19.4382C35.2257 19.3972 35.2488 19.3415 35.2488 19.2835V16.6591C35.2488 16.6011 35.2257 16.5454 35.1847 16.5044C35.1437 16.4634 35.0881 16.4403 35.0301 16.4403ZM41.1543 40.9353C41.1182 40.9353 41.0826 40.9265 41.0508 40.9095C41.019 40.8925 40.9918 40.8679 40.9718 40.8379L40.097 39.5257C40.0787 39.4979 40.0668 39.4663 40.0625 39.4333C40.0581 39.4003 40.0613 39.3668 40.0718 39.3352L40.4977 38.0567V37.6547C40.4977 37.626 40.5033 37.5975 40.5143 37.571C40.5253 37.5444 40.5414 37.5203 40.5617 37.5C40.582 37.4797 40.6062 37.4636 40.6327 37.4526C40.6592 37.4416 40.6877 37.436 40.7164 37.436C40.7451 37.436 40.7736 37.4416 40.8001 37.4526C40.8267 37.4636 40.8508 37.4797 40.8711 37.5C40.8914 37.5203 40.9075 37.5444 40.9185 37.571C40.9295 37.5975 40.9351 37.626 40.9351 37.6547V38.0921C40.9351 38.1156 40.9313 38.1391 40.924 38.1613L40.5203 39.3719L41.3358 40.5953C41.3517 40.6192 41.3628 40.646 41.3685 40.6741C41.3741 40.7023 41.374 40.7313 41.3684 40.7595C41.3628 40.7877 41.3517 40.8145 41.3356 40.8383C41.3196 40.8622 41.2991 40.8827 41.2752 40.8986C41.2394 40.9225 41.1973 40.9352 41.1543 40.9353Z" fill="#2D4162"/>
<path d="M41.1538 40.9353C41.1142 40.9353 41.0754 40.9245 41.0414 40.9042C41.0075 40.8838 40.9797 40.8547 40.961 40.8198C40.9423 40.7849 40.9335 40.7455 40.9354 40.706C40.9373 40.6665 40.9499 40.6282 40.9718 40.5952L41.7873 39.3719L41.3841 38.1613C41.3764 38.139 41.3725 38.1156 41.3725 38.092V37.6546C41.3725 37.6259 41.3782 37.5975 41.3891 37.5709C41.4001 37.5444 41.4162 37.5203 41.4366 37.5C41.4569 37.4796 41.481 37.4635 41.5075 37.4526C41.5341 37.4416 41.5625 37.4359 41.5912 37.4359C41.6199 37.4359 41.6484 37.4416 41.6749 37.4526C41.7015 37.4635 41.7256 37.4796 41.7459 37.5C41.7662 37.5203 41.7823 37.5444 41.7933 37.5709C41.8043 37.5975 41.8099 37.6259 41.8099 37.6546V38.0566L42.2363 39.3351C42.2468 39.3667 42.25 39.4003 42.2456 39.4333C42.2411 39.4664 42.2292 39.4979 42.2106 39.5256L41.3358 40.8378C41.3159 40.8678 41.2888 40.8925 41.2571 40.9095C41.2253 40.9265 41.1899 40.9353 41.1538 40.9353ZM42.0286 34.3741H40.279C40.2503 34.3741 40.2218 34.3685 40.1953 34.3575C40.1688 34.3465 40.1446 34.3304 40.1243 34.3101C40.104 34.2898 40.0879 34.2656 40.0769 34.2391C40.0659 34.2126 40.0603 34.1841 40.0603 34.1554C40.0603 34.0345 40.1581 33.9366 40.279 33.9366H42.0286C42.1495 33.9366 42.2474 34.0345 42.2474 34.1554C42.2474 34.1841 42.2417 34.2126 42.2307 34.2391C42.2198 34.2657 42.2036 34.2898 42.1833 34.3101C42.163 34.3304 42.1389 34.3465 42.1123 34.3575C42.0858 34.3685 42.0573 34.3741 42.0286 34.3741Z" fill="#2D4162"/>
<path d="M40.279 34.3741C40.2225 34.374 40.1683 34.3521 40.1276 34.3129C40.0869 34.2737 40.0629 34.2204 40.0607 34.1639L39.6233 23.2285C39.6221 23.1997 39.6266 23.1711 39.6365 23.1441C39.6464 23.1171 39.6615 23.0924 39.681 23.0713C39.7005 23.0502 39.7239 23.0331 39.75 23.0211C39.7761 23.0091 39.8043 23.0023 39.8331 23.0012C39.9527 22.9861 40.0552 23.0903 40.0603 23.211L40.4977 34.1469C40.4999 34.2048 40.479 34.2612 40.4397 34.3038C40.4004 34.3463 40.3458 34.3716 40.2879 34.3741H40.279ZM42.029 34.3741H42.0201C41.8992 34.369 41.8052 34.2673 41.8103 34.1469L42.2478 23.211C42.2525 23.0903 42.3537 22.9863 42.475 23.0012C42.5329 23.0036 42.5876 23.0288 42.6269 23.0714C42.6662 23.114 42.687 23.1705 42.6847 23.2285L42.2473 34.1639C42.2451 34.2204 42.2212 34.2738 42.1805 34.3129C42.1398 34.3521 42.0855 34.374 42.029 34.3741Z" fill="#2D4162"/>
<path d="M42.466 23.4385C42.4373 23.4385 42.4089 23.4329 42.3823 23.4219C42.3558 23.4109 42.3317 23.3948 42.3114 23.3745C42.291 23.3542 42.2749 23.33 42.264 23.3035C42.253 23.277 42.2473 23.2485 42.2473 23.2198C42.2473 22.204 41.8795 21.6889 41.1538 21.6889C40.4285 21.6889 40.0603 22.204 40.0603 23.2198C40.0603 23.3407 39.9624 23.4385 39.8416 23.4385C39.7207 23.4385 39.6229 23.3407 39.6229 23.2198C39.6229 21.9689 40.1812 21.2515 41.1538 21.2515C42.1269 21.2515 42.6847 21.9689 42.6847 23.2198C42.6848 23.2485 42.6791 23.2769 42.6681 23.3035C42.6571 23.33 42.641 23.3541 42.6207 23.3745C42.6004 23.3948 42.5763 23.4109 42.5498 23.4219C42.5232 23.4328 42.4948 23.4385 42.466 23.4385Z" fill="#2D4162"/>
<path d="M41.5912 21.6888H40.7164C40.5955 21.6888 40.4977 21.591 40.4977 21.4701C40.4977 21.3492 40.5955 21.2514 40.7164 21.2514H41.5912C41.7121 21.2514 41.8099 21.3492 41.8099 21.4701C41.8099 21.591 41.7121 21.6888 41.5912 21.6888ZM41.1538 29.1248C41.1251 29.1248 41.0967 29.1191 41.0701 29.1082C41.0436 29.0972 41.0195 29.0811 40.9991 29.0608C40.9788 29.0404 40.9627 29.0163 40.9517 28.9898C40.9408 28.9632 40.9351 28.9348 40.9351 28.9061V22.3449C40.9351 22.2241 41.0329 22.1262 41.1538 22.1262C41.2747 22.1262 41.3725 22.2241 41.3725 22.3449V28.9061C41.3726 28.9348 41.3669 28.9632 41.3559 28.9898C41.3449 29.0163 41.3288 29.0404 41.3085 29.0608C41.2882 29.0811 41.2641 29.0972 41.2376 29.1082C41.211 29.1191 41.1826 29.1248 41.1538 29.1248ZM42.0286 35.2489H40.279C40.2503 35.249 40.2218 35.2433 40.1953 35.2323C40.1687 35.2213 40.1446 35.2052 40.1243 35.1849C40.104 35.1646 40.0879 35.1405 40.0769 35.1139C40.0659 35.0874 40.0603 35.0589 40.0603 35.0302C40.0603 35.0015 40.0659 34.973 40.0769 34.9465C40.0879 34.9199 40.104 34.8958 40.1243 34.8755C40.1446 34.8552 40.1688 34.8391 40.1953 34.8281C40.2218 34.8171 40.2503 34.8115 40.279 34.8115H42.0286C42.1495 34.8115 42.2474 34.9093 42.2474 35.0302C42.2474 35.1511 42.1495 35.2489 42.0286 35.2489Z" fill="#2D4162"/>
<path d="M42.0286 35.2489C41.9999 35.2489 41.9714 35.2433 41.9449 35.2323C41.9184 35.2213 41.8942 35.2052 41.8739 35.1849C41.8536 35.1646 41.8375 35.1404 41.8265 35.1139C41.8155 35.0874 41.8099 35.0589 41.8099 35.0302V34.1554C41.8099 34.0345 41.9078 33.9366 42.0286 33.9366C42.1495 33.9366 42.2474 34.0345 42.2474 34.1554V35.0302C42.2474 35.1511 42.1495 35.2489 42.0286 35.2489ZM40.279 35.2489C40.2503 35.2489 40.2218 35.2433 40.1953 35.2323C40.1687 35.2213 40.1446 35.2052 40.1243 35.1849C40.104 35.1646 40.0879 35.1404 40.0769 35.1139C40.0659 35.0874 40.0603 35.0589 40.0603 35.0302V34.1554C40.0603 34.0345 40.1581 33.9366 40.279 33.9366C40.3077 33.9366 40.3362 33.9423 40.3627 33.9533C40.3893 33.9643 40.4134 33.9804 40.4337 34.0007C40.454 34.021 40.4701 34.0451 40.4811 34.0717C40.4921 34.0982 40.4977 34.1267 40.4977 34.1554V35.0302C40.4977 35.1511 40.3999 35.2489 40.279 35.2489ZM42.0286 37.8734H40.279C40.2503 37.8734 40.2218 37.8677 40.1953 37.8568C40.1688 37.8458 40.1446 37.8297 40.1243 37.8094C40.104 37.789 40.0879 37.7649 40.0769 37.7384C40.0659 37.7119 40.0603 37.6834 40.0603 37.6547C40.0603 37.626 40.0659 37.5975 40.0769 37.571C40.0879 37.5444 40.104 37.5203 40.1243 37.5C40.1446 37.4797 40.1688 37.4636 40.1953 37.4526C40.2218 37.4416 40.2503 37.436 40.279 37.436H42.0286C42.1495 37.436 42.2474 37.5338 42.2474 37.6547C42.2474 37.6834 42.2417 37.7119 42.2307 37.7384C42.2198 37.7649 42.2036 37.7891 42.1833 37.8094C42.163 37.8297 42.1389 37.8458 42.1123 37.8568C42.0858 37.8678 42.0573 37.8734 42.0286 37.8734Z" fill="#2D4162"/>
<path d="M42.0286 37.8734C41.9999 37.8734 41.9714 37.8677 41.9449 37.8568C41.9184 37.8458 41.8943 37.8297 41.8739 37.8094C41.8536 37.789 41.8375 37.7649 41.8265 37.7384C41.8156 37.7119 41.8099 37.6834 41.8099 37.6547V35.0302C41.8099 35.0015 41.8156 34.9731 41.8265 34.9465C41.8375 34.92 41.8536 34.8959 41.8739 34.8756C41.8943 34.8552 41.9184 34.8391 41.9449 34.8282C41.9714 34.8172 41.9999 34.8115 42.0286 34.8115C42.1495 34.8115 42.2474 34.9094 42.2474 35.0302V37.6547C42.2474 37.6834 42.2417 37.7119 42.2307 37.7384C42.2198 37.7649 42.2036 37.7891 42.1833 37.8094C42.163 37.8297 42.1389 37.8458 42.1123 37.8568C42.0858 37.8678 42.0573 37.8734 42.0286 37.8734ZM40.279 37.8734C40.2503 37.8734 40.2218 37.8677 40.1953 37.8568C40.1687 37.8458 40.1446 37.8297 40.1243 37.8094C40.104 37.789 40.0879 37.7649 40.0769 37.7384C40.0659 37.7119 40.0603 37.6834 40.0603 37.6547V35.0302C40.0603 35.0015 40.0659 34.9731 40.0769 34.9465C40.0879 34.92 40.104 34.8959 40.1243 34.8756C40.1446 34.8552 40.1687 34.8391 40.1953 34.8282C40.2218 34.8172 40.2503 34.8115 40.279 34.8115C40.3077 34.8115 40.3362 34.8172 40.3627 34.8282C40.3892 34.8391 40.4134 34.8552 40.4337 34.8756C40.454 34.8959 40.4701 34.92 40.4811 34.9465C40.4921 34.9731 40.4977 35.0015 40.4977 35.0302V37.6547C40.4977 37.6834 40.4921 37.7119 40.4811 37.7384C40.4701 37.7649 40.454 37.7891 40.4337 37.8094C40.4134 37.8297 40.3893 37.8458 40.3627 37.8568C40.3362 37.8678 40.3077 37.8734 40.279 37.8734ZM21.4704 26.0633C21.4417 26.0634 21.4132 26.0577 21.3867 26.0467C21.3602 26.0357 21.3361 26.0196 21.3158 25.9993L20.4409 25.1245C20.4206 25.1042 20.4045 25.0801 20.3935 25.0535C20.3825 25.027 20.3769 24.9986 20.3769 24.9698C20.3769 24.9411 20.3825 24.9127 20.3935 24.8862C20.4045 24.8596 20.4206 24.8355 20.4409 24.8152C20.4612 24.7949 20.4854 24.7788 20.5119 24.7678C20.5384 24.7568 20.5669 24.7512 20.5956 24.7512C20.6243 24.7512 20.6527 24.7568 20.6793 24.7678C20.7058 24.7788 20.7299 24.7949 20.7502 24.8152L21.625 25.69C21.6556 25.7206 21.6765 25.7596 21.6849 25.802C21.6934 25.8444 21.689 25.8884 21.6725 25.9284C21.6559 25.9684 21.6279 26.0025 21.5919 26.0265C21.5559 26.0506 21.5136 26.0634 21.4704 26.0633Z" fill="#2D4162"/>
<path d="M21.4704 26.0634C21.4271 26.0634 21.3848 26.0506 21.3489 26.0265C21.3129 26.0025 21.2849 25.9683 21.2683 25.9284C21.2518 25.8884 21.2474 25.8444 21.2559 25.802C21.2643 25.7596 21.2852 25.7206 21.3158 25.6901L23.0654 23.9404C23.1064 23.8994 23.162 23.8763 23.22 23.8763C23.278 23.8763 23.3336 23.8994 23.3746 23.9404C23.4157 23.9814 23.4387 24.037 23.4387 24.095C23.4387 24.153 23.4157 24.2086 23.3746 24.2497L21.625 25.9993C21.6047 26.0197 21.5806 26.0358 21.5541 26.0468C21.5275 26.0578 21.4991 26.0634 21.4704 26.0634Z" fill="#2D4162"/>
<path d="M21.4704 31.7496C21.4417 31.7497 21.4132 31.744 21.3867 31.733C21.3602 31.722 21.3361 31.7059 21.3158 31.6855L20.4409 30.8107C20.3999 30.7697 20.3769 30.7141 20.3769 30.6561C20.3769 30.5981 20.3999 30.5425 20.4409 30.5015C20.482 30.4605 20.5376 30.4374 20.5956 30.4374C20.6536 30.4374 20.7092 30.4605 20.7502 30.5015L21.625 31.3763C21.6557 31.4068 21.6765 31.4458 21.685 31.4883C21.6934 31.5307 21.6891 31.5747 21.6725 31.6147C21.656 31.6546 21.6279 31.6888 21.5919 31.7128C21.556 31.7368 21.5136 31.7497 21.4704 31.7496Z" fill="#2D4162"/>
<path d="M21.4704 31.7496C21.4271 31.7497 21.3848 31.7368 21.3488 31.7128C21.3128 31.6888 21.2848 31.6546 21.2683 31.6146C21.2517 31.5747 21.2474 31.5307 21.2558 31.4882C21.2643 31.4458 21.2852 31.4068 21.3158 31.3763L23.0654 29.6271C23.1064 29.5861 23.162 29.563 23.22 29.563C23.278 29.563 23.3336 29.5861 23.3746 29.6271C23.4156 29.6681 23.4387 29.7237 23.4387 29.7817C23.4387 29.8397 23.4156 29.8953 23.3746 29.9364L21.625 31.6855C21.6047 31.7059 21.5806 31.722 21.5541 31.733C21.5276 31.744 21.4991 31.7497 21.4704 31.7496Z" fill="#2D4162"/>
<path d="M34.1553 23.8763H25.4071C25.2863 23.8763 25.1884 23.7784 25.1884 23.6575C25.1884 23.5366 25.2863 23.4388 25.4071 23.4388H34.1553C34.2762 23.4388 34.374 23.5366 34.374 23.6575C34.374 23.7784 34.2761 23.8763 34.1553 23.8763Z" fill="#2D4162"/>
<path d="M34.1553 25.1885H25.4071C25.2863 25.1885 25.1884 25.0906 25.1884 24.9698C25.1884 24.8489 25.2863 24.751 25.4071 24.751H34.1553C34.2762 24.751 34.374 24.8489 34.374 24.9698C34.374 25.0907 34.2761 25.1885 34.1553 25.1885Z" fill="#2D4162"/>
<path d="M29.7812 26.5007H25.4071C25.3784 26.5008 25.3499 26.4951 25.3234 26.4841C25.2968 26.4731 25.2727 26.457 25.2524 26.4367C25.2321 26.4164 25.216 26.3923 25.205 26.3657C25.194 26.3392 25.1884 26.3107 25.1884 26.282C25.1884 26.2533 25.194 26.2248 25.205 26.1983C25.216 26.1717 25.2321 26.1476 25.2524 26.1273C25.2727 26.107 25.2969 26.0909 25.3234 26.0799C25.3499 26.0689 25.3784 26.0633 25.4071 26.0633H29.7812C29.8099 26.0633 29.8383 26.0689 29.8649 26.0799C29.8914 26.0909 29.9155 26.107 29.9359 26.1273C29.9562 26.1476 29.9723 26.1717 29.9833 26.1983C29.9942 26.2248 29.9999 26.2533 29.9999 26.282C29.9999 26.403 29.902 26.5007 29.7812 26.5007Z" fill="#2D4162"/>
<path d="M34.1553 29.5626H25.4071C25.2863 29.5626 25.1884 29.4647 25.1884 29.3439C25.1884 29.223 25.2863 29.1251 25.4071 29.1251H34.1553C34.2762 29.1251 34.374 29.223 34.374 29.3439C34.374 29.4648 34.2761 29.5626 34.1553 29.5626Z" fill="#2D4162"/>
<path d="M34.1553 30.8748H25.4071C25.3784 30.8748 25.3499 30.8692 25.3234 30.8582C25.2969 30.8472 25.2727 30.8311 25.2524 30.8108C25.2321 30.7905 25.216 30.7664 25.205 30.7398C25.194 30.7133 25.1884 30.6849 25.1884 30.6561C25.1884 30.6274 25.194 30.599 25.205 30.5724C25.216 30.5459 25.2321 30.5218 25.2524 30.5015C25.2727 30.4812 25.2969 30.465 25.3234 30.4541C25.3499 30.4431 25.3784 30.4374 25.4071 30.4374H34.1553C34.184 30.4374 34.2125 30.4431 34.239 30.4541C34.2656 30.465 34.2897 30.4812 34.31 30.5015C34.3303 30.5218 34.3464 30.5459 34.3574 30.5724C34.3684 30.599 34.374 30.6274 34.374 30.6561C34.374 30.6849 34.3684 30.7133 34.3574 30.7398C34.3464 30.7664 34.3303 30.7905 34.3099 30.8108C34.2896 30.8311 34.2655 30.8472 34.239 30.8582C34.2124 30.8692 34.184 30.8748 34.1553 30.8748Z" fill="#2D4162"/>
<path d="M29.7812 32.1871H25.4071C25.3784 32.1871 25.3499 32.1814 25.3234 32.1705C25.2968 32.1595 25.2727 32.1434 25.2524 32.123C25.2321 32.1027 25.216 32.0786 25.205 32.0521C25.194 32.0255 25.1884 31.9971 25.1884 31.9683C25.1884 31.9396 25.194 31.9112 25.205 31.8846C25.216 31.8581 25.2321 31.834 25.2524 31.8137C25.2727 31.7933 25.2969 31.7772 25.3234 31.7663C25.3499 31.7553 25.3784 31.7496 25.4071 31.7496H29.7812C29.8099 31.7496 29.8383 31.7553 29.8649 31.7663C29.8914 31.7772 29.9155 31.7933 29.9359 31.8137C29.9562 31.834 29.9723 31.8581 29.9833 31.8846C29.9942 31.9112 29.9999 31.9396 29.9999 31.9683C29.9999 32.0892 29.902 32.1871 29.7812 32.1871Z" fill="#2D4162"/>
<path d="M21.4704 37.436C21.4417 37.4361 21.4132 37.4304 21.3867 37.4194C21.3602 37.4084 21.3361 37.3923 21.3158 37.3719L20.4409 36.4971C20.4206 36.4768 20.4045 36.4527 20.3935 36.4262C20.3825 36.3997 20.3769 36.3712 20.3769 36.3425C20.3769 36.3138 20.3825 36.2854 20.3935 36.2588C20.4045 36.2323 20.4206 36.2082 20.4409 36.1879C20.4612 36.1676 20.4854 36.1515 20.5119 36.1405C20.5384 36.1295 20.5669 36.1238 20.5956 36.1238C20.6243 36.1238 20.6527 36.1295 20.6793 36.1405C20.7058 36.1515 20.7299 36.1676 20.7502 36.1879L21.625 37.0627C21.6557 37.0932 21.6765 37.1322 21.685 37.1747C21.6934 37.2171 21.6891 37.2611 21.6725 37.3011C21.656 37.341 21.6279 37.3752 21.5919 37.3992C21.556 37.4232 21.5136 37.4361 21.4704 37.436Z" fill="#2D4162"/>
<path d="M21.4704 37.436C21.4271 37.436 21.3848 37.4232 21.3488 37.3992C21.3128 37.3751 21.2848 37.341 21.2683 37.301C21.2517 37.261 21.2474 37.217 21.2558 37.1746C21.2643 37.1322 21.2852 37.0932 21.3158 37.0626L23.0654 35.313C23.1064 35.272 23.162 35.249 23.22 35.249C23.278 35.249 23.3336 35.272 23.3746 35.313C23.4156 35.354 23.4387 35.4096 23.4387 35.4676C23.4387 35.5256 23.4156 35.5813 23.3746 35.6223L21.625 37.3719C21.6047 37.3922 21.5806 37.4084 21.5541 37.4194C21.5275 37.4304 21.4991 37.436 21.4704 37.436Z" fill="#2D4162"/>
<path d="M34.1553 35.2489H25.4071C25.3784 35.2489 25.3499 35.2433 25.3234 35.2323C25.2968 35.2213 25.2727 35.2052 25.2524 35.1849C25.2321 35.1646 25.216 35.1404 25.205 35.1139C25.194 35.0873 25.1884 35.0589 25.1884 35.0302C25.1884 35.0014 25.194 34.973 25.205 34.9465C25.216 34.9199 25.2321 34.8958 25.2524 34.8755C25.2727 34.8552 25.2969 34.8391 25.3234 34.8281C25.3499 34.8171 25.3784 34.8114 25.4071 34.8115H34.1553C34.184 34.8114 34.2125 34.8171 34.239 34.8281C34.2656 34.8391 34.2897 34.8552 34.31 34.8755C34.3303 34.8958 34.3464 34.9199 34.3574 34.9465C34.3684 34.973 34.374 35.0014 34.374 35.0302C34.374 35.0589 34.3684 35.0873 34.3574 35.1139C34.3464 35.1404 34.3303 35.1645 34.3099 35.1849C34.2896 35.2052 34.2655 35.2213 34.239 35.2323C34.2124 35.2433 34.184 35.2489 34.1553 35.2489Z" fill="#2D4162"/>
<path d="M34.1553 36.5612H25.4071C25.3784 36.5612 25.3499 36.5555 25.3234 36.5446C25.2969 36.5336 25.2727 36.5175 25.2524 36.4971C25.2321 36.4768 25.216 36.4527 25.205 36.4262C25.194 36.3996 25.1884 36.3712 25.1884 36.3425C25.1884 36.3138 25.194 36.2853 25.205 36.2588C25.216 36.2322 25.2321 36.2081 25.2524 36.1878C25.2727 36.1675 25.2969 36.1514 25.3234 36.1404C25.3499 36.1294 25.3784 36.1238 25.4071 36.1238H34.1553C34.184 36.1238 34.2125 36.1294 34.239 36.1404C34.2656 36.1514 34.2897 36.1675 34.31 36.1878C34.3303 36.2081 34.3464 36.2322 34.3574 36.2588C34.3684 36.2853 34.374 36.3138 34.374 36.3425C34.374 36.3712 34.3684 36.3996 34.3574 36.4262C34.3464 36.4527 34.3303 36.4768 34.3099 36.4972C34.2896 36.5175 34.2655 36.5336 34.239 36.5446C34.2124 36.5555 34.184 36.5612 34.1553 36.5612Z" fill="#2D4162"/>
<path d="M29.7812 37.8734H25.4071C25.3784 37.8734 25.3499 37.8677 25.3234 37.8567C25.2969 37.8458 25.2727 37.8297 25.2524 37.8093C25.2321 37.789 25.216 37.7649 25.205 37.7384C25.194 37.7118 25.1884 37.6834 25.1884 37.6547C25.1884 37.6259 25.194 37.5975 25.205 37.571C25.216 37.5444 25.2321 37.5203 25.2524 37.5C25.2727 37.4797 25.2969 37.4636 25.3234 37.4526C25.3499 37.4416 25.3784 37.436 25.4071 37.436H29.7812C29.8099 37.436 29.8383 37.4416 29.8649 37.4526C29.8914 37.4636 29.9155 37.4797 29.9359 37.5C29.9562 37.5203 29.9723 37.5444 29.9833 37.571C29.9942 37.5975 29.9999 37.6259 29.9999 37.6547C29.9999 37.6834 29.9942 37.7118 29.9833 37.7384C29.9723 37.7649 29.9562 37.789 29.9359 37.8093C29.9155 37.8297 29.8914 37.8458 29.8649 37.8567C29.8383 37.8677 29.8099 37.8734 29.7812 37.8734Z" fill="#2D4162"/>
</svg>
