<svg width="60" height="60" viewBox="0 0 60 60" fill="none" xmlns="http://www.w3.org/2000/svg">
<rect width="60" height="60" rx="8" fill="#F2F4F7"/>
<g clip-path="url(#clip0_135_241)">
<path d="M31.8854 19.8408C32.2047 19.4366 32.4021 18.9269 32.4021 18.3731C32.4021 17.0645 31.3407 16 30.0322 16C28.7236 16 27.6606 17.0645 27.6606 18.3731C27.6606 18.927 27.83 19.4366 28.1491 19.8408C27.1721 20.4601 26.4997 21.5503 26.4997 22.7903V25.6775C26.4997 26.117 26.9012 26.4984 27.3406 26.4984H32.7302C33.1696 26.4984 33.5004 26.1169 33.5004 25.6775V22.7903C33.5003 21.5503 32.8626 20.46 31.8854 19.8408Z" fill="#2D4162"/>
<path d="M24.6965 29.2099V26.3226C24.6965 25.0828 24.0862 23.9924 23.1089 23.3732C23.4282 22.9689 23.6393 22.4593 23.6393 21.9055C23.6393 20.5969 22.5847 19.5323 21.2761 19.5323C19.9676 19.5323 18.908 20.597 18.908 21.9056C18.908 22.4595 19.1048 22.969 19.4238 23.3733C18.4467 23.9926 17.8018 25.0828 17.8018 26.3228V29.21C17.8018 29.6494 18.152 29.9988 18.5913 29.9988H23.9808C24.4203 29.9987 24.6965 29.6493 24.6965 29.2099Z" fill="#2D4162"/>
<path d="M40.6119 23.3733C40.931 22.969 41.1429 22.4594 41.1429 21.9056C41.1429 20.597 40.0887 19.5325 38.7801 19.5325C37.4715 19.5325 36.4121 20.597 36.4121 21.9056C36.4121 22.4595 36.6075 22.969 36.9267 23.3733C35.9496 23.9926 35.3034 25.0828 35.3034 26.3228V29.21C35.3034 29.6495 35.6562 29.9988 36.0956 29.9988H41.4852C41.9246 29.9988 42.1981 29.6495 42.1981 29.21V26.3228C42.1981 25.0828 41.5889 23.9925 40.6119 23.3733Z" fill="#2D4162"/>
<path d="M31.8854 37.3693C32.2047 36.9651 32.4021 36.4555 32.4021 35.9017C32.4021 34.5931 31.3407 33.5286 30.0322 33.5286C28.7236 33.5286 27.6606 34.5931 27.6606 35.9017C27.6606 36.4555 27.83 36.9652 28.1491 37.3694C27.1721 37.9888 26.4997 39.079 26.4997 40.3189V43.2062C26.4997 43.6456 26.9012 44 27.3406 44H32.7302C33.1696 44 33.5004 43.6455 33.5004 43.2062V40.3189C33.5003 39.0789 32.8626 37.9888 31.8854 37.3693ZM30.0353 35.1197C30.4665 35.1197 30.8174 35.4706 30.8174 35.9017C30.8174 36.333 30.4665 36.6838 30.0353 36.6838C29.6042 36.6838 29.2533 36.3329 29.2533 35.9017C29.2533 35.4706 29.6041 35.1197 30.0353 35.1197ZM31.9093 42.4089H28.0907V40.3189C28.0907 39.2716 28.9528 38.4196 30.0001 38.4196C31.0472 38.4196 31.9093 39.2716 31.9093 40.3189V42.4089Z" fill="#2D4162"/>
<path d="M30.7425 30.6966V28.0603C30.7425 27.6208 30.3864 27.2648 29.947 27.2648C29.5075 27.2648 29.1514 27.6208 29.1514 28.0603V30.6966C29.1514 31.136 29.5075 31.4921 29.947 31.4921C30.3863 31.4921 30.7425 31.1359 30.7425 30.6966Z" fill="#2D4162"/>
<path d="M22.2933 30.8686C21.9741 30.5667 21.4709 30.5803 21.1685 30.8993C20.8664 31.2184 20.8802 31.7219 21.1991 32.0241L25.1989 35.8115C25.3528 35.9571 25.5495 36.0294 25.7458 36.0294C25.9566 36.0294 26.1672 35.946 26.3236 35.7809C26.6257 35.4618 26.6119 34.9583 26.293 34.6561L22.2933 30.8686Z" fill="#2D4162"/>
<path d="M37.7699 30.8574L33.7811 34.6535C33.4627 34.9564 33.4503 35.46 33.7532 35.7782C33.9095 35.9426 34.1193 36.0254 34.3295 36.0254C34.5265 36.0254 34.7239 35.9526 34.8778 35.8061L38.8667 32.01C39.185 31.7071 39.1974 31.2036 38.8946 30.8854C38.5918 30.5669 38.0881 30.5547 37.7699 30.8574Z" fill="#2D4162"/>
</g>
<defs>
<clipPath id="clip0_135_241">
<rect width="28" height="28" fill="white" transform="translate(16 16)"/>
</clipPath>
</defs>
</svg>
