<svg width="60" height="60" viewBox="0 0 60 60" fill="none" xmlns="http://www.w3.org/2000/svg">
<rect width="60" height="60" rx="8" fill="#F2F4F7"/>
<path d="M39.8438 17.5356H20.1562C19.4654 17.5309 18.801 17.8006 18.3089 18.2854C17.8167 18.7701 17.537 19.4304 17.5312 20.1212V30.4287C17.537 31.1195 17.8167 31.7798 18.3089 32.2646C18.801 32.7493 19.4654 33.019 20.1562 33.0143H28.565C28.5366 33.0791 28.5146 33.1465 28.4994 33.2156C28.454 33.5779 28.4976 33.9458 28.6263 34.2875L28.6656 34.41C28.9325 35.39 29.23 36.3437 29.4881 37.1531L29.5056 37.2056C29.6638 37.8947 29.9933 38.5328 30.4638 39.0606C30.6869 39.275 30.9144 39.4937 31.1419 39.7081C30.9789 39.7731 30.8389 39.8853 30.74 40.0302C30.641 40.1752 30.5875 40.3463 30.5863 40.5218V41.5893C30.5869 41.8212 30.6794 42.0433 30.8433 42.2073C31.0072 42.3712 31.2294 42.4636 31.4613 42.4643H39.6906C39.9225 42.4636 40.1446 42.3712 40.3086 42.2073C40.4725 42.0433 40.5649 41.8212 40.5656 41.5893V40.5218C40.5649 40.29 40.4725 40.0678 40.3086 39.9039C40.1446 39.7399 39.9225 39.6475 39.6906 39.6468H39.5813C39.7344 39.1525 39.8962 38.645 40.08 38.155C40.57 36.8337 40.5569 35.4687 40.5481 34.1475C40.5438 33.7406 40.5438 33.3206 40.5569 32.9093C41.1028 32.7615 41.5852 32.4389 41.9305 31.9909C42.2758 31.543 42.4648 30.9943 42.4688 30.4287V20.1212C42.463 19.4304 42.1833 18.7701 41.6911 18.2854C41.199 17.8006 40.5346 17.5309 39.8438 17.5356ZM39.6906 40.5218V41.5893H31.4613V40.5218H39.6906ZM39.6906 32.5331C39.6644 33.0756 39.6688 33.6268 39.6731 34.1562C39.6819 35.4556 39.695 36.6806 39.2575 37.8487C39.0475 38.4087 38.8725 38.9818 38.6975 39.5331L38.6625 39.6468H32.3406C31.9162 39.24 31.4919 38.8375 31.0675 38.4262C30.7107 37.9962 30.4604 37.488 30.3369 36.9431L30.3194 36.8862C30.0656 36.09 29.7725 35.145 29.5056 34.1737L29.4663 34.0381C29.3837 33.828 29.3464 33.6029 29.3569 33.3775C29.3784 33.2838 29.4241 33.1974 29.4893 33.1268C29.5545 33.0562 29.6371 33.0038 29.7287 32.975H29.7331C29.7589 32.967 29.7852 32.9612 29.8119 32.9575C29.9124 32.9435 30.0148 32.9556 30.1094 32.9925C30.2232 33.0303 30.3195 33.108 30.3806 33.2112C30.4555 33.3448 30.5171 33.4855 30.5644 33.6312C30.5994 33.7187 30.63 33.8106 30.665 33.8893C30.7087 33.9987 30.7437 34.1081 30.7787 34.2175C30.8574 34.4764 30.9615 34.727 31.0894 34.9656C31.161 35.1245 31.2859 35.2534 31.4425 35.3301C31.599 35.4067 31.7774 35.4264 31.9469 35.3856C32.1175 35.3331 32.4019 35.1625 32.4194 34.6156C32.4325 33.9375 32.4456 33.2637 32.4544 32.5856C32.4675 31.7281 32.485 30.8691 32.5069 30.0087C32.5375 28.7706 32.5813 27.7512 32.6425 26.8237L32.6513 26.675C32.6564 26.532 32.7167 26.3967 32.8195 26.2972C32.9222 26.1977 33.0595 26.1418 33.2025 26.1412C33.3496 26.1412 33.4914 26.1958 33.6006 26.2943C33.6489 26.3399 33.6874 26.3948 33.7138 26.4557C33.7401 26.5166 33.7537 26.5823 33.7537 26.6487V32.5243C33.7537 32.6404 33.7998 32.7516 33.8819 32.8337C33.9639 32.9157 34.0752 32.9618 34.1912 32.9618C34.3073 32.9618 34.4186 32.9157 34.5006 32.8337C34.5827 32.7516 34.6287 32.6404 34.6287 32.5243V29.9781C34.6287 29.7506 34.8781 29.5668 35.18 29.5668C35.33 29.5627 35.4769 29.6106 35.5956 29.7025C35.6382 29.7394 35.6724 29.7851 35.6958 29.8365C35.7192 29.8878 35.7313 29.9435 35.7312 30V32.5243C35.7312 32.6404 35.7773 32.7516 35.8594 32.8337C35.9414 32.9157 36.0527 32.9618 36.1687 32.9618C36.2848 32.9618 36.3961 32.9157 36.4781 32.8337C36.5602 32.7516 36.6062 32.6404 36.6062 32.5243V30.4506C36.6068 30.3674 36.6295 30.2859 36.6719 30.2143C36.7202 30.1462 36.7821 30.0886 36.8535 30.0453C36.9249 30.0019 37.0045 29.9736 37.0873 29.9621C37.1701 29.9506 37.2543 29.9562 37.3349 29.9785C37.4154 30.0008 37.4905 30.0394 37.5556 30.0918C37.5917 30.1294 37.6239 30.1704 37.6519 30.2143C37.6915 30.2868 37.7125 30.368 37.7131 30.4506V32.5243C37.7131 32.6404 37.7592 32.7516 37.8413 32.8337C37.9233 32.9157 38.0346 32.9618 38.1506 32.9618C38.2667 32.9618 38.3779 32.9157 38.46 32.8337C38.542 32.7516 38.5881 32.6404 38.5881 32.5243V31.2031C38.5948 31.0634 38.6566 30.932 38.7599 30.8377C38.8632 30.7434 38.9996 30.6939 39.1394 30.7C39.2887 30.6995 39.4325 30.7558 39.5419 30.8575C39.5886 30.9021 39.6259 30.9557 39.6514 31.0151C39.677 31.0745 39.6903 31.1384 39.6906 31.2031V32.5331ZM31.82 26.3468H31.5312V24.855L35.0312 24.8462V26.3425H34.5894C34.5311 26.081 34.3954 25.8432 34.2 25.66C33.9297 25.4065 33.573 25.2657 33.2025 25.2662C32.8837 25.263 32.5733 25.3682 32.3221 25.5645C32.0709 25.7608 31.8939 26.0367 31.82 26.3468ZM39.8438 29.1425C39.8412 29.2561 39.7938 29.3641 39.7118 29.4428C39.6298 29.5216 39.5199 29.5646 39.4062 29.5625H38.2425C38.2119 29.5318 38.1944 29.4925 38.1637 29.4662C37.893 29.2075 37.532 29.0647 37.1575 29.0681C36.8837 29.0694 36.6156 29.1466 36.3831 29.2912C36.3223 29.1982 36.2487 29.1142 36.1644 29.0418C36.1085 28.9942 36.0485 28.9518 35.985 28.915C35.9461 28.8897 35.9051 28.8678 35.8625 28.8493C35.8406 28.8406 35.8231 28.8318 35.8012 28.8231C35.6053 28.7374 35.3939 28.6927 35.18 28.6918C35.1419 28.6924 35.104 28.6953 35.0662 28.7006C35.0356 28.705 35.005 28.705 34.9744 28.7093C34.9333 28.713 34.8924 28.7189 34.8519 28.7268C34.7756 28.7414 34.7008 28.7634 34.6287 28.7925V27.2175H35.0312C35.2626 27.2175 35.4845 27.1259 35.6484 26.9627C35.8124 26.7996 35.9051 26.5781 35.9062 26.3468V24.8462C35.9039 24.6157 35.8107 24.3953 35.6469 24.2331C35.483 24.0709 35.2618 23.9799 35.0312 23.98H31.5312C31.3007 23.9799 31.0795 24.0709 30.9156 24.2331C30.7518 24.3953 30.6586 24.6157 30.6562 24.8462V26.3468C30.6574 26.5781 30.7501 26.7996 30.9141 26.9627C31.078 27.1259 31.2999 27.2175 31.5312 27.2175H31.7413C31.7369 27.2918 31.7325 27.3662 31.7281 27.445C31.7238 27.5237 31.7194 27.6025 31.715 27.6768C31.7062 27.8431 31.6975 28.0093 31.6931 28.1756L31.68 28.4643C31.6756 28.6306 31.6669 28.7968 31.6625 28.9675C31.6581 29.0725 31.6537 29.1775 31.6537 29.2868C31.6494 29.3787 31.645 29.4662 31.645 29.5625H20.5938C20.4801 29.5646 20.3702 29.5216 20.2882 29.4428C20.2062 29.3641 20.1588 29.2561 20.1562 29.1425V20.55C20.1588 20.4363 20.2062 20.3283 20.2882 20.2496C20.3702 20.1709 20.4801 20.1278 20.5938 20.13H39.4062C39.5199 20.1278 39.6298 20.1709 39.7118 20.2496C39.7938 20.3283 39.8412 20.4363 39.8438 20.55V29.1425ZM41.5938 30.4287C41.5916 30.7589 41.4931 31.0812 41.3105 31.3563C41.1279 31.6314 40.8691 31.8473 40.5656 31.9775V31.2031C40.5649 31.0189 40.5269 30.8367 40.4539 30.6676C40.381 30.4984 40.2747 30.3457 40.1413 30.2187C40.3175 30.0996 40.4622 29.9393 40.5628 29.7519C40.6634 29.5644 40.7169 29.3552 40.7188 29.1425V20.55C40.7155 20.2045 40.5756 19.8743 40.3297 19.6316C40.0838 19.389 39.7518 19.2536 39.4062 19.255H20.5938C20.2482 19.2536 19.9162 19.389 19.6703 19.6316C19.4244 19.8743 19.2845 20.2045 19.2812 20.55V29.1425C19.2845 29.4879 19.4244 29.8181 19.6703 30.0608C19.9162 30.3034 20.2482 30.4389 20.5938 30.4375H31.6231C31.6056 31.1506 31.5881 31.8593 31.5794 32.5725C31.575 32.9793 31.5662 33.3862 31.5619 33.7887C31.5356 33.7143 31.505 33.64 31.4744 33.5568C31.4437 33.4825 31.4131 33.4037 31.3869 33.3293C31.3207 33.132 31.2358 32.9416 31.1331 32.7606C30.9841 32.5253 30.7714 32.3371 30.5197 32.2178C30.2681 32.0986 29.9877 32.0531 29.7113 32.0868C29.6338 32.0965 29.5576 32.114 29.4837 32.1393H20.1562C19.929 32.1419 19.7035 32.0997 19.4926 32.0152C19.2816 31.9306 19.0894 31.8053 18.9269 31.6465C18.7644 31.4876 18.6348 31.2983 18.5455 31.0894C18.4561 30.8804 18.4088 30.6559 18.4062 30.4287V20.1212C18.4088 19.894 18.4561 19.6695 18.5455 19.4605C18.6348 19.2516 18.7644 19.0623 18.9269 18.9034C19.0894 18.7446 19.2816 18.6193 19.4926 18.5347C19.7035 18.4502 19.929 18.408 20.1562 18.4106H39.8438C40.071 18.408 40.2965 18.4502 40.5074 18.5347C40.7184 18.6193 40.9106 18.7446 41.0731 18.9034C41.2356 19.0623 41.3652 19.2516 41.4545 19.4605C41.5439 19.6695 41.5912 19.894 41.5938 20.1212V30.4287Z" fill="#2D4162"/>
<path d="M30.6562 31.2905C30.6562 31.4066 30.6102 31.5178 30.5281 31.5999C30.4461 31.6819 30.3348 31.728 30.2188 31.728H29.3438C29.2277 31.728 29.1164 31.6819 29.0344 31.5999C28.9523 31.5178 28.9062 31.4066 28.9062 31.2905C28.9062 31.1745 28.9523 31.0632 29.0344 30.9812C29.1164 30.8991 29.2277 30.853 29.3438 30.853H30.2188C30.3348 30.853 30.4461 30.8991 30.5281 30.9812C30.6102 31.0632 30.6562 31.1745 30.6562 31.2905Z" fill="#2D4162"/>
<path d="M24.9688 22.2693C24.9688 22.3853 24.9227 22.4966 24.8406 22.5786C24.7586 22.6607 24.6473 22.7068 24.5312 22.7068H22.3438C22.2277 22.7068 22.1164 22.6607 22.0344 22.5786C21.9523 22.4966 21.9062 22.3853 21.9062 22.2693C21.9062 22.1533 21.9523 22.042 22.0344 21.9599C22.1164 21.8779 22.2277 21.8318 22.3438 21.8318H24.5312C24.6473 21.8318 24.7586 21.8779 24.8406 21.9599C24.9227 22.042 24.9688 22.1533 24.9688 22.2693Z" fill="#2D4162"/>
<path d="M24.9688 24.8462C24.9688 24.9622 24.9227 25.0735 24.8406 25.1556C24.7586 25.2376 24.6473 25.2837 24.5312 25.2837H22.3438C22.2277 25.2837 22.1164 25.2376 22.0344 25.1556C21.9523 25.0735 21.9062 24.9622 21.9062 24.8462C21.9062 24.7302 21.9523 24.6189 22.0344 24.5368C22.1164 24.4548 22.2277 24.4087 22.3438 24.4087H24.5312C24.6473 24.4087 24.7586 24.4548 24.8406 24.5368C24.9227 24.6189 24.9688 24.7302 24.9688 24.8462Z" fill="#2D4162"/>
<path d="M24.9688 27.4231C24.9688 27.5391 24.9227 27.6504 24.8406 27.7325C24.7586 27.8145 24.6473 27.8606 24.5312 27.8606H22.3438C22.2277 27.8606 22.1164 27.8145 22.0344 27.7325C21.9523 27.6504 21.9062 27.5391 21.9062 27.4231C21.9062 27.3071 21.9523 27.1958 22.0344 27.1137C22.1164 27.0317 22.2277 26.9856 22.3438 26.9856H24.5312C24.6473 26.9856 24.7586 27.0317 24.8406 27.1137C24.9227 27.1958 24.9688 27.3071 24.9688 27.4231Z" fill="#2D4162"/>
<path d="M29.2125 21.7225L27.9 23.0087C27.8188 23.0899 27.7086 23.1356 27.5938 23.1356C27.4789 23.1356 27.3687 23.0899 27.2875 23.0087L26.4125 22.1512C26.33 22.0692 26.2832 21.9579 26.2824 21.8415C26.2815 21.7251 26.3268 21.6132 26.4081 21.53C26.4895 21.4479 26.6001 21.4014 26.7157 21.4006C26.8313 21.3997 26.9425 21.4447 27.025 21.5256L27.5938 22.0856L28.6 21.0969C28.6826 21.0159 28.7938 20.971 28.9094 20.9718C29.0249 20.9726 29.1355 21.0192 29.2169 21.1012C29.2983 21.1844 29.3435 21.2964 29.3427 21.4128C29.3418 21.5291 29.2951 21.6405 29.2125 21.7225Z" fill="#2D4162"/>
<path d="M29.2125 24.2994L27.9 25.5856C27.8188 25.6668 27.7086 25.7125 27.5937 25.7125C27.4789 25.7125 27.3687 25.6668 27.2875 25.5856L26.4125 24.7281C26.3295 24.6469 26.2822 24.5361 26.281 24.42C26.2798 24.3039 26.3247 24.192 26.4059 24.1091C26.4872 24.0261 26.598 23.9788 26.7141 23.9776C26.8302 23.9763 26.942 24.0213 27.025 24.1025L27.5937 24.6625L28.6 23.6738C28.6825 23.5929 28.7938 23.5479 28.9093 23.5487C29.0249 23.5495 29.1355 23.5961 29.2169 23.6781C29.2983 23.7613 29.3435 23.8733 29.3426 23.9897C29.3418 24.106 29.295 24.2174 29.2125 24.2994Z" fill="#2D4162"/>
<path d="M29.2125 26.8762L27.9 28.1624C27.8188 28.2436 27.7086 28.2893 27.5937 28.2893C27.4789 28.2893 27.3687 28.2436 27.2875 28.1624L26.4125 27.3049C26.3295 27.2237 26.2822 27.1128 26.281 26.9967C26.2798 26.8806 26.3247 26.7688 26.4059 26.6859C26.4872 26.6029 26.598 26.5556 26.7141 26.5544C26.8302 26.5531 26.942 26.5981 27.025 26.6793L27.5937 27.2393L28.6 26.2505C28.6825 26.1696 28.7938 26.1247 28.9093 26.1255C29.0249 26.1263 29.1355 26.1728 29.2169 26.2549C29.2983 26.3381 29.3435 26.4501 29.3426 26.5664C29.3418 26.6828 29.295 26.7941 29.2125 26.8762Z" fill="#2D4162"/>
</svg>
