<svg width="60" height="60" viewBox="0 0 60 60" fill="none" xmlns="http://www.w3.org/2000/svg">
<rect width="60" height="60" rx="8" fill="#F2F4F7"/>
<path d="M42.9045 17.7045C42.8817 17.372 42.6131 17.1095 42.2806 17.0946H42.2789C36.9055 16.8592 32.1394 19.1727 27.879 24.0937H19.5C19.1937 24.0937 18.9374 24.3029 18.8647 24.5864L18.8639 24.5907L17.1139 31.5907C17.1016 31.638 17.0946 31.6931 17.0946 31.7491C17.0946 32.1114 17.3877 32.4054 17.7509 32.4062H22.3901C22.1031 32.9557 21.817 33.5079 21.5352 34.088C21.4941 34.172 21.4696 34.2709 21.4696 34.375C21.4696 34.5561 21.5431 34.7206 21.6621 34.8405L25.1621 38.3405C25.2811 38.4586 25.4447 38.5321 25.6259 38.5321C25.7344 38.5321 25.8359 38.5059 25.926 38.4604L25.9225 38.4621C26.4837 38.178 27.041 37.8896 27.5946 37.5967V42.3882C27.5946 42.3891 27.5946 42.3891 27.5946 42.39C27.5946 42.7514 27.8877 43.0445 28.2491 43.0445C28.25 43.0445 28.25 43.0445 28.2509 43.0445C28.3077 43.0445 28.362 43.0375 28.4145 43.0244L28.4092 43.0252L35.4092 41.2752C35.6971 41.2009 35.9062 40.9436 35.9062 40.6382V32.2514C40.3714 28.5659 43.3394 23.9835 42.9045 17.7062V17.7045ZM18.5909 31.0937L20.0127 25.4062H26.8019C25.5217 27.0591 24.2959 28.9185 23.2135 30.868L23.0989 31.0937H18.5909ZM34.5937 40.1237L28.9062 41.5456V36.881C31.1025 35.6796 32.961 34.4861 34.732 33.1789L34.5937 33.276V40.1237ZM25.7527 37.0735L22.9212 34.242C28.1879 23.5845 34.2849 18.3905 41.536 18.3905L41.627 18.3914C41.914 27.4292 34.2411 32.7291 25.7527 37.0735ZM36.125 21.4687C34.7959 21.4687 33.7187 22.5459 33.7187 23.875C33.7187 25.2041 34.7959 26.2812 36.125 26.2812C37.4541 26.2812 38.5312 25.2041 38.5312 23.875C38.5295 22.5467 37.4532 21.4705 36.125 21.4687ZM36.125 24.9687C35.5212 24.9687 35.0312 24.4787 35.0312 23.875C35.0312 23.2712 35.5212 22.7812 36.125 22.7812C36.7287 22.7812 37.2187 23.2712 37.2187 23.875C37.2179 24.4787 36.7287 24.9679 36.125 24.9687ZM19.92 37.2205L19.5035 37.2187C19.1894 37.2817 18.9899 37.3815 18.8901 37.6309L17.1401 42.0059C17.1104 42.0776 17.0938 42.1616 17.0938 42.2491C17.0938 42.6114 17.3869 42.9054 17.75 42.9062C17.8375 42.9062 17.9215 42.8887 17.9985 42.8581L17.9941 42.8599L22.3726 41.1134C22.6062 41.0171 22.7707 40.7975 22.7847 40.5376V40.5359C22.8031 40.1824 22.8267 39.8761 22.8469 39.6127C22.9151 38.7325 22.9606 38.1497 22.5581 37.7122C22.1136 37.2301 21.4722 37.2266 19.9209 37.2196L19.92 37.2205ZM21.5379 39.5121C21.5247 39.6749 21.5107 39.8525 21.4976 40.0485L18.9269 41.074L19.9427 38.533C20.7267 38.5365 21.4591 38.54 21.5615 38.5566C21.5711 38.666 21.5764 38.7929 21.5764 38.9215C21.5764 39.1297 21.5624 39.3345 21.5352 39.5357L21.5379 39.5121Z" fill="#2D4162"/>
</svg>
